<svg xmlns="http://www.w3.org/2000/svg" viewBox="0 0 800 600">
  <defs>
    <linearGradient id="skyGradient" x1="0%" y1="0%" x2="0%" y2="100%">
      <stop offset="0%" style="stop-color:#87CEEB;stop-opacity:1" />
      <stop offset="100%" style="stop-color:#00BFFF;stop-opacity:1" />
    </linearGradient>
    <linearGradient id="riceFieldGradient" x1="0%" y1="0%" x2="0%" y2="100%">
      <stop offset="0%" style="stop-color:#90EE90;stop-opacity:1" />
      <stop offset="100%" style="stop-color:#32CD32;stop-opacity:1" />
    </linearGradient>
    <linearGradient id="templeGradient" x1="0%" y1="0%" x2="100%" y2="0%">
      <stop offset="0%" style="stop-color:#8B4513;stop-opacity:1" />
      <stop offset="50%" style="stop-color:#A0522D;stop-opacity:1" />
      <stop offset="100%" style="stop-color:#8B4513;stop-opacity:1" />
    </linearGradient>
  </defs>

  <!-- Sky Background -->
  <rect width="800" height="600" fill="url(#skyGradient)" />

  <!-- Mountains in Background -->
  <path d="M0 200 L200 50 L400 180 L600 80 L800 220 L800 600 L0 600 Z" fill="#808080" opacity="0.6" />

  <!-- Rice Terraces -->
  <g transform="translate(0,300)">
    <path d="M0 0 L800 50 L800 300 L0 300 Z" fill="url(#riceFieldGradient)" />
    <!-- Terrace Lines -->
    <path d="M0 50 L800 80" stroke="#006400" stroke-width="2" opacity="0.5" />
    <path d="M0 100 L800 120" stroke="#006400" stroke-width="2" opacity="0.5" />
    <path d="M0 150 L800 160" stroke="#006400" stroke-width="2" opacity="0.5" />
    <path d="M0 200 L800 200" stroke="#006400" stroke-width="2" opacity="0.5" />
  </g>

  <!-- Balinese Temple -->
  <g transform="translate(400,250)">
    <!-- Main Structure -->
    <path d="M-60 0 L-40 -80 L40 -80 L60 0 Z" fill="url(#templeGradient)" />
    
    <!-- Roof Layers -->
    <path d="M-40 -80 L0 -120 L40 -80" fill="#8B4513" />
    <path d="M-30 -90 L0 -140 L30 -90" fill="#A0522D" />
    
    <!-- Temple Details -->
    <g fill="#FFD700" opacity="0.8">
      <rect x="-30" y="-60" width="60" height="10" />
      <rect x="-20" y="-40" width="40" height="10" />
      <rect x="-25" y="-20" width="50" height="10" />
    </g>

    <!-- Temple Steps -->
    <g fill="#8B4513">
      <rect x="-50" y="0" width="100" height="10" />
      <rect x="-40" y="10" width="80" height="10" />
      <rect x="-30" y="20" width="60" height="10" />
    </g>
  </g>

  <!-- Palm Trees -->
  <g>
    <!-- Left Palm -->
    <g transform="translate(100,280)">
      <path d="M-5 0 C-10 -30 0 -60 -5 -90" fill="none" stroke="#8B4513" stroke-width="10" />
      <g transform="translate(-5,-90)">
        <path d="M0 0 C20 -20 40 -10 60 0" fill="#228B22">
          <animate attributeName="d" values="M0 0 C20 -20 40 -10 60 0;M0 0 C20 -10 40 -20 60 -10;M0 0 C20 -20 40 -10 60 0" dur="3s" repeatCount="indefinite" />
        </path>
        <path d="M0 0 C-20 -20 -40 -10 -60 0" fill="#228B22">
          <animate attributeName="d" values="M0 0 C-20 -20 -40 -10 -60 0;M0 0 C-20 -10 -40 -20 -60 -10;M0 0 C-20 -20 -40 -10 -60 0" dur="3s" repeatCount="indefinite" />
        </path>
      </g>
    </g>

    <!-- Right Palm -->
    <g transform="translate(700,260)">
      <path d="M5 0 C10 -30 0 -60 5 -90" fill="none" stroke="#8B4513" stroke-width="10" />
      <g transform="translate(5,-90)">
        <path d="M0 0 C-20 -20 -40 -10 -60 0" fill="#228B22">
          <animate attributeName="d" values="M0 0 C-20 -20 -40 -10 -60 0;M0 0 C-20 -10 -40 -20 -60 -10;M0 0 C-20 -20 -40 -10 -60 0" dur="3s" repeatCount="indefinite" />
        </path>
        <path d="M0 0 C20 -20 40 -10 60 0" fill="#228B22">
          <animate attributeName="d" values="M0 0 C20 -20 40 -10 60 0;M0 0 C20 -10 40 -20 60 -10;M0 0 C20 -20 40 -10 60 0" dur="3s" repeatCount="indefinite" />
        </path>
      </g>
    </g>
  </g>

  <!-- Traditional Umbrellas -->
  <g transform="translate(200,350)">
    <path d="M-20 0 Q0 -30 20 0" fill="#FF4500" />
    <line x1="0" y1="0" x2="0" y2="20" stroke="#8B4513" stroke-width="2" />
  </g>
  <g transform="translate(600,370)">
    <path d="M-20 0 Q0 -30 20 0" fill="#FFD700" />
    <line x1="0" y1="0" x2="0" y2="20" stroke="#8B4513" stroke-width="2" />
  </g>

  <!-- Birds -->
  <g fill="none" stroke="#000000" stroke-width="2" opacity="0.6">
    <path d="M500 100 Q510 90 520 100 Q530 90 540 100">
      <animate attributeName="d" values="M500 100 Q510 90 520 100 Q530 90 540 100;M500 105 Q510 95 520 105 Q530 95 540 105;M500 100 Q510 90 520 100 Q530 90 540 100" dur="2s" repeatCount="indefinite" />
    </path>
    <path d="M520 120 Q530 110 540 120 Q550 110 560 120">
      <animate attributeName="d" values="M520 120 Q530 110 540 120 Q550 110 560 120;M520 125 Q530 115 540 125 Q550 115 560 125;M520 120 Q530 110 540 120 Q550 110 560 120" dur="2s" repeatCount="indefinite" />
    </path>
  </g>

  <!-- Sun -->
  <g transform="translate(100,100)">
    <circle cx="0" cy="0" r="30" fill="#FFD700">
      <animate attributeName="opacity" values="0.8;1;0.8" dur="3s" repeatCount="indefinite" />
    </circle>
    <!-- Sun Rays -->
    <g stroke="#FFD700" stroke-width="3" opacity="0.6">
      <line x1="-40" y1="0" x2="-50" y2="0">
        <animate attributeName="opacity" values="0.6;0.2;0.6" dur="2s" repeatCount="indefinite" />
      </line>
      <line x1="40" y1="0" x2="50" y2="0">
        <animate attributeName="opacity" values="0.6;0.2;0.6" dur="2s" repeatCount="indefinite" />
      </line>
      <line x1="0" y1="-40" x2="0" y2="-50">
        <animate attributeName="opacity" values="0.6;0.2;0.6" dur="2s" repeatCount="indefinite" />
      </line>
      <line x1="0" y1="40" x2="0" y2="50">
        <animate attributeName="opacity" values="0.6;0.2;0.6" dur="2s" repeatCount="indefinite" />
      </line>
    </g>
  </g>
</svg>