<svg xmlns="http://www.w3.org/2000/svg" viewBox="0 0 800 600">
  <defs>
    <linearGradient id="skyGradient" x1="0%" y1="0%" x2="0%" y2="100%">
      <stop offset="0%" style="stop-color:#FF8C00;stop-opacity:1" />
      <stop offset="100%" style="stop-color:#FFD700;stop-opacity:1" />
    </linearGradient>
    <linearGradient id="buildingGradient" x1="0%" y1="0%" x2="100%" y2="0%">
      <stop offset="0%" style="stop-color:#B8860B;stop-opacity:1" />
      <stop offset="50%" style="stop-color:#FFD700;stop-opacity:1" />
      <stop offset="100%" style="stop-color:#B8860B;stop-opacity:1" />
    </linearGradient>
    <linearGradient id="desertGradient" x1="0%" y1="0%" x2="0%" y2="100%">
      <stop offset="0%" style="stop-color:#F4A460;stop-opacity:1" />
      <stop offset="100%" style="stop-color:#8B4513;stop-opacity:1" />
    </linearGradient>
  </defs>

  <!-- Sky Background -->
  <rect width="800" height="600" fill="url(#skyGradient)" />

  <!-- Sun -->
  <circle cx="100" cy="100" r="50" fill="#FFF" opacity="0.8">
    <animate attributeName="opacity" values="0.8;0.9;0.8" dur="3s" repeatCount="indefinite" />
  </circle>

  <!-- Desert Background -->
  <path d="M0 400 Q200 350 400 400 T800 400 L800 600 L0 600 Z" fill="url(#desertGradient)" />

  <!-- Burj Khalifa -->
  <g transform="translate(400,300)">
    <!-- Main Structure -->
    <path d="M-20 200 L0 -150 L20 200 Z" fill="url(#buildingGradient)">
      <animate attributeName="opacity" values="0.8;1;0.8" dur="2s" repeatCount="indefinite" />
    </path>
    
    <!-- Windows -->
    <g opacity="0.6">
      <rect x="-15" y="-100" width="30" height="2" fill="#FFFFFF">
        <animate attributeName="opacity" values="0.6;1;0.6" dur="1s" repeatCount="indefinite" />
      </rect>
      <rect x="-15" y="-80" width="30" height="2" fill="#FFFFFF">
        <animate attributeName="opacity" values="0.6;1;0.6" dur="1.2s" repeatCount="indefinite" />
      </rect>
      <rect x="-15" y="-60" width="30" height="2" fill="#FFFFFF">
        <animate attributeName="opacity" values="0.6;1;0.6" dur="0.8s" repeatCount="indefinite" />
      </rect>
      <rect x="-15" y="-40" width="30" height="2" fill="#FFFFFF">
        <animate attributeName="opacity" values="0.6;1;0.6" dur="1.5s" repeatCount="indefinite" />
      </rect>
    </g>

    <!-- Spire -->
    <line x1="0" y1="-150" x2="0" y2="-200" stroke="#B8860B" stroke-width="2">
      <animate attributeName="opacity" values="0.8;1;0.8" dur="1s" repeatCount="indefinite" />
    </line>
  </g>

  <!-- Other Buildings -->
  <g transform="translate(0,300)">
    <!-- Building 1 -->
    <rect x="100" y="0" width="40" height="150" fill="#B8860B" opacity="0.8" />
    
    <!-- Building 2 -->
    <rect x="160" y="-50" width="50" height="200" fill="#DAA520" opacity="0.7" />
    
    <!-- Building 3 -->
    <rect x="600" y="-30" width="45" height="180" fill="#B8860B" opacity="0.8" />
    
    <!-- Building 4 -->
    <rect x="670" y="20" width="55" height="130" fill="#DAA520" opacity="0.7" />
  </g>

  <!-- Palm Trees -->
  <g>
    <!-- Tree 1 -->
    <g transform="translate(150,450)">
      <rect x="-5" y="-20" width="10" height="30" fill="#8B4513" />
      <path d="M-20 -20 Q0 -40 20 -20" fill="#228B22" />
    </g>
    
    <!-- Tree 2 -->
    <g transform="translate(650,470)">
      <rect x="-5" y="-20" width="10" height="30" fill="#8B4513" />
      <path d="M-20 -20 Q0 -40 20 -20" fill="#228B22" />
    </g>
  </g>

  <!-- Flying Birds -->
  <g>
    <path d="M500 150 Q510 140 520 150 Q530 140 540 150" fill="none" stroke="#000" stroke-width="2" opacity="0.6">
      <animate attributeName="d" values="M500 150 Q510 140 520 150 Q530 140 540 150;M500 155 Q510 145 520 155 Q530 145 540 155;M500 150 Q510 140 520 150 Q530 140 540 150" dur="2s" repeatCount="indefinite" />
    </path>
    <path d="M520 170 Q530 160 540 170 Q550 160 560 170" fill="none" stroke="#000" stroke-width="2" opacity="0.6">
      <animate attributeName="d" values="M520 170 Q530 160 540 170 Q550 160 560 170;M520 175 Q530 165 540 175 Q550 165 560 175;M520 170 Q530 160 540 170 Q550 160 560 170" dur="2s" repeatCount="indefinite" />
    </path>
  </g>

  <!-- Reflections in Windows -->
  <g opacity="0.3">
    <animate attributeName="opacity" values="0.3;0.4;0.3" dur="2s" repeatCount="indefinite" />
    <rect x="100" y="320" width="5" height="100" fill="#FFFFFF" />
    <rect x="170" y="280" width="5" height="150" fill="#FFFFFF" />
    <rect x="610" y="300" width="5" height="120" fill="#FFFFFF" />
    <rect x="680" y="350" width="5" height="80" fill="#FFFFFF" />
  </g>
</svg>