<svg xmlns="http://www.w3.org/2000/svg" viewBox="0 0 800 600">
  <defs>
    <linearGradient id="skyGradient" x1="0%" y1="0%" x2="0%" y2="100%">
      <stop offset="0%" style="stop-color:#87CEEB;stop-opacity:1" />
      <stop offset="100%" style="stop-color:#1E90FF;stop-opacity:1" />
    </linearGradient>
    <linearGradient id="waterGradient" x1="0%" y1="0%" x2="0%" y2="100%">
      <stop offset="0%" style="stop-color:#40E0D0;stop-opacity:0.8" />
      <stop offset="100%" style="stop-color:#00008B;stop-opacity:0.8" />
    </linearGradient>
    <pattern id="waterPattern" x="0" y="0" width="20" height="20" patternUnits="userSpaceOnUse">
      <path d="M0 10 Q5 5, 10 10 T20 10" fill="none" stroke="#ffffff" stroke-width="1" opacity="0.1">
        <animate attributeName="d" values="M0 10 Q5 5, 10 10 T20 10;M0 15 Q5 10, 10 15 T20 15;M0 10 Q5 5, 10 10 T20 10" dur="3s" repeatCount="indefinite" />
      </path>
    </pattern>
  </defs>

  <!-- Sky -->
  <rect width="800" height="300" fill="url(#skyGradient)" />

  <!-- Sun -->
  <circle cx="600" cy="100" r="40" fill="#FFD700">
    <animate attributeName="opacity" values="0.8;1;0.8" dur="3s" repeatCount="indefinite" />
  </circle>
  <!-- Sun rays -->
  <g transform="translate(600,100)">
    <g transform="rotate(0)">
      <line x1="50" y1="0" x2="70" y2="0" stroke="#FFD700" stroke-width="2">
        <animate attributeName="opacity" values="0.6;0.9;0.6" dur="2s" repeatCount="indefinite" />
      </line>
    </g>
    <g transform="rotate(45)">
      <line x1="50" y1="0" x2="70" y2="0" stroke="#FFD700" stroke-width="2">
        <animate attributeName="opacity" values="0.6;0.9;0.6" dur="2s" repeatCount="indefinite" />
      </line>
    </g>
    <g transform="rotate(90)">
      <line x1="50" y1="0" x2="70" y2="0" stroke="#FFD700" stroke-width="2">
        <animate attributeName="opacity" values="0.6;0.9;0.6" dur="2s" repeatCount="indefinite" />
      </line>
    </g>
    <g transform="rotate(135)">
      <line x1="50" y1="0" x2="70" y2="0" stroke="#FFD700" stroke-width="2">
        <animate attributeName="opacity" values="0.6;0.9;0.6" dur="2s" repeatCount="indefinite" />
      </line>
    </g>
  </g>

  <!-- Ocean -->
  <rect y="300" width="800" height="300" fill="url(#waterGradient)" />
  <rect y="300" width="800" height="300" fill="url(#waterPattern)" />

  <!-- Water Villa -->
  <g transform="translate(300,250)">
    <!-- Support stilts -->
    <line x1="-60" y1="50" x2="-60" y2="150" stroke="#8B4513" stroke-width="8" />
    <line x1="60" y1="50" x2="60" y2="150" stroke="#8B4513" stroke-width="8" />
    
    <!-- Main structure -->
    <rect x="-80" y="-20" width="160" height="70" fill="#DEB887" />
    
    <!-- Roof -->
    <path d="M-90 -20 L0 -60 L90 -20" fill="#8B4513" />
    
    <!-- Windows -->
    <rect x="-60" y="0" width="30" height="30" fill="#87CEEB" opacity="0.6" />
    <rect x="30" y="0" width="30" height="30" fill="#87CEEB" opacity="0.6" />
    
    <!-- Deck -->
    <rect x="-100" y="50" width="200" height="20" fill="#DEB887" />
  </g>

  <!-- Palm Trees -->
  <g transform="translate(100,280)">
    <!-- Trunk -->
    <path d="M0 0 C10 -20 -10 -40 0 -60" fill="none" stroke="#8B4513" stroke-width="6" />
    
    <!-- Leaves -->
    <g transform="translate(0,-60)">
      <path d="M0 0 C20 -10 40 -5 50 0" fill="#228B22">
        <animate attributeName="d" values="M0 0 C20 -10 40 -5 50 0;M0 0 C20 -5 40 -10 50 -5;M0 0 C20 -10 40 -5 50 0" dur="3s" repeatCount="indefinite" />
      </path>
      <path d="M0 0 C-20 -10 -40 -5 -50 0" fill="#228B22">
        <animate attributeName="d" values="M0 0 C-20 -10 -40 -5 -50 0;M0 0 C-20 -5 -40 -10 -50 -5;M0 0 C-20 -10 -40 -5 -50 0" dur="3s" repeatCount="indefinite" />
      </path>
    </g>
  </g>

  <!-- Small boat -->
  <g transform="translate(500,350)">
    <path d="M-20 0 L20 0 L10 10 L-10 10 Z" fill="#FFFFFF">
      <animateTransform
        attributeName="transform"
        type="translate"
        values="0,0; 0,-5; 0,0"
        dur="2s"
        repeatCount="indefinite"
      />
    </path>
  </g>

  <!-- Birds -->
  <g>
    <path d="M600 150 Q610 140 620 150 Q630 140 640 150" fill="none" stroke="#000000" stroke-width="2">
      <animate attributeName="d" values="M600 150 Q610 140 620 150 Q630 140 640 150;M600 155 Q610 145 620 155 Q630 145 640 155;M600 150 Q610 140 620 150 Q630 140 640 150" dur="2s" repeatCount="indefinite" />
    </path>
    <path d="M620 170 Q630 160 640 170 Q650 160 660 170" fill="none" stroke="#000000" stroke-width="2">
      <animate attributeName="d" values="M620 170 Q630 160 640 170 Q650 160 660 170;M620 175 Q630 165 640 175 Q650 165 660 175;M620 170 Q630 160 640 170 Q650 160 660 170" dur="2s" repeatCount="indefinite" />
    </path>
  </g>
</svg>