<svg xmlns="http://www.w3.org/2000/svg" viewBox="0 0 800 600">
  <defs>
    <linearGradient id="skyGradient" x1="0%" y1="0%" x2="0%" y2="100%">
      <stop offset="0%" style="stop-color:#87CEEB;stop-opacity:1" />
      <stop offset="100%" style="stop-color:#00BFFF;stop-opacity:1" />
    </linearGradient>
    <linearGradient id="waterGradient" x1="0%" y1="0%" x2="0%" y2="100%">
      <stop offset="0%" style="stop-color:#00CED1;stop-opacity:0.8" />
      <stop offset="100%" style="stop-color:#4169E1;stop-opacity:0.8" />
    </linearGradient>
    <linearGradient id="sandGradient" x1="0%" y1="0%" x2="100%" y2="0%">
      <stop offset="0%" style="stop-color:#F5DEB3;stop-opacity:1" />
      <stop offset="50%" style="stop-color:#FFE4B5;stop-opacity:1" />
      <stop offset="100%" style="stop-color:#F5DEB3;stop-opacity:1" />
    </linearGradient>
  </defs>

  <!-- Sky -->
  <rect width="800" height="300" fill="url(#skyGradient)" />

  <!-- Sun -->
  <g transform="translate(650,80)">
    <circle cx="0" cy="0" r="40" fill="#FFD700">
      <animate attributeName="opacity" values="0.8;1;0.8" dur="3s" repeatCount="indefinite" />
    </circle>
    <!-- Sun rays -->
    <g>
      <line x1="-50" y1="0" x2="-70" y2="0" stroke="#FFD700" stroke-width="3" opacity="0.6">
        <animate attributeName="opacity" values="0.6;0.2;0.6" dur="2s" repeatCount="indefinite" />
      </line>
      <line x1="50" y1="0" x2="70" y2="0" stroke="#FFD700" stroke-width="3" opacity="0.6">
        <animate attributeName="opacity" values="0.6;0.2;0.6" dur="2s" repeatCount="indefinite" />
      </line>
      <line x1="0" y1="-50" x2="0" y2="-70" stroke="#FFD700" stroke-width="3" opacity="0.6">
        <animate attributeName="opacity" values="0.6;0.2;0.6" dur="2s" repeatCount="indefinite" />
      </line>
      <line x1="0" y1="50" x2="0" y2="70" stroke="#FFD700" stroke-width="3" opacity="0.6">
        <animate attributeName="opacity" values="0.6;0.2;0.6" dur="2s" repeatCount="indefinite" />
      </line>
    </g>
  </g>

  <!-- Ocean -->
  <rect y="300" width="800" height="300" fill="url(#waterGradient)">
    <animate attributeName="opacity" values="0.8;0.9;0.8" dur="3s" repeatCount="indefinite" />
  </rect>

  <!-- Beach -->
  <path d="M0 400 Q200 380 400 400 T800 380 L800 600 L0 600 Z" fill="url(#sandGradient)" />

  <!-- Granite Rocks -->
  <g transform="translate(100,350)">
    <path d="M0 0 Q30 -40 60 0 Q90 -30 120 0" fill="#808080" />
    <path d="M20 0 Q40 -20 60 0" fill="#A9A9A9" />
  </g>

  <!-- Palm Trees -->
  <g transform="translate(200,380)">
    <!-- Trunk -->
    <path d="M0 0 C10 -30 -10 -60 0 -90" fill="none" stroke="#8B4513" stroke-width="8" />
    
    <!-- Leaves -->
    <g transform="translate(0,-90)">
      <path d="M0 0 C30 -20 60 -10 80 0" fill="#228B22">
        <animate attributeName="d" values="M0 0 C30 -20 60 -10 80 0;M0 0 C30 -10 60 -20 80 -10;M0 0 C30 -20 60 -10 80 0" dur="3s" repeatCount="indefinite" />
      </path>
      <path d="M0 0 C-30 -20 -60 -10 -80 0" fill="#228B22">
        <animate attributeName="d" values="M0 0 C-30 -20 -60 -10 -80 0;M0 0 C-30 -10 -60 -20 -80 -10;M0 0 C-30 -20 -60 -10 -80 0" dur="3s" repeatCount="indefinite" />
      </path>
    </g>
  </g>

  <!-- Second Palm Tree -->
  <g transform="translate(600,360)">
    <path d="M0 0 C-5 -30 5 -60 0 -80" fill="none" stroke="#8B4513" stroke-width="6" />
    <g transform="translate(0,-80)">
      <path d="M0 0 C20 -15 40 -8 50 0" fill="#228B22">
        <animate attributeName="d" values="M0 0 C20 -15 40 -8 50 0;M0 0 C20 -8 40 -15 50 -8;M0 0 C20 -15 40 -8 50 0" dur="3s" repeatCount="indefinite" />
      </path>
      <path d="M0 0 C-20 -15 -40 -8 -50 0" fill="#228B22">
        <animate attributeName="d" values="M0 0 C-20 -15 -40 -8 -50 0;M0 0 C-20 -8 -40 -15 -50 -8;M0 0 C-20 -15 -40 -8 -50 0" dur="3s" repeatCount="indefinite" />
      </path>
    </g>
  </g>

  <!-- Luxury Beach Villa -->
  <g transform="translate(400,320)">
    <!-- Main Structure -->
    <rect x="-60" y="-40" width="120" height="60" fill="#FFFFFF" />
    <!-- Roof -->
    <path d="M-70 -40 L0 -80 L70 -40" fill="#8B4513" />
    <!-- Windows -->
    <rect x="-40" y="-30" width="20" height="20" fill="#87CEEB" opacity="0.6" />
    <rect x="20" y="-30" width="20" height="20" fill="#87CEEB" opacity="0.6" />
    <!-- Deck -->
    <rect x="-80" y="20" width="160" height="20" fill="#DEB887" />
  </g>

  <!-- Birds -->
  <g>
    <path d="M300 100 Q310 90 320 100 Q330 90 340 100" fill="none" stroke="#000000" stroke-width="2" opacity="0.6">
      <animate attributeName="d" values="M300 100 Q310 90 320 100 Q330 90 340 100;M300 105 Q310 95 320 105 Q330 95 340 105;M300 100 Q310 90 320 100 Q330 90 340 100" dur="2s" repeatCount="indefinite" />
    </path>
    <path d="M320 120 Q330 110 340 120 Q350 110 360 120" fill="none" stroke="#000000" stroke-width="2" opacity="0.6">
      <animate attributeName="d" values="M320 120 Q330 110 340 120 Q350 110 360 120;M320 125 Q330 115 340 125 Q350 115 360 125;M320 120 Q330 110 340 120 Q350 110 360 120" dur="2s" repeatCount="indefinite" />
    </path>
  </g>

  <!-- Small Boat -->
  <g transform="translate(500,280)">
    <path d="M-20 0 L20 0 L10 10 L-10 10 Z" fill="#FFFFFF">
      <animateTransform
        attributeName="transform"
        type="translate"
        values="0,0; 0,-3; 0,0"
        dur="2s"
        repeatCount="indefinite"
      />
    </path>
  </g>
</svg>