<svg viewBox="0 0 1920 1080" xmlns="http://www.w3.org/2000/svg">
  <defs>
    <linearGradient id="mountainSky" x1="0%" y1="0%" x2="0%" y2="100%">
      <stop offset="0%" style="stop-color:#0ea5e9;stop-opacity:1" />
      <stop offset="50%" style="stop-color:#0284c7;stop-opacity:1" />
      <stop offset="100%" style="stop-color:#0c4a6e;stop-opacity:1" />
    </linearGradient>
    <linearGradient id="mountainGradient1" x1="0%" y1="0%" x2="0%" y2="100%">
      <stop offset="0%" style="stop-color:#64748b;stop-opacity:1" />
      <stop offset="50%" style="stop-color:#475569;stop-opacity:1" />
      <stop offset="100%" style="stop-color:#334155;stop-opacity:1" />
    </linearGradient>
    <linearGradient id="mountainGradient2" x1="0%" y1="0%" x2="0%" y2="100%">
      <stop offset="0%" style="stop-color:#78716c;stop-opacity:1" />
      <stop offset="50%" style="stop-color:#57534e;stop-opacity:1" />
      <stop offset="100%" style="stop-color:#3c3c3c;stop-opacity:1" />
    </linearGradient>
    <radialGradient id="sunGlow" cx="50%" cy="50%" r="50%">
      <stop offset="0%" style="stop-color:#fbbf24;stop-opacity:1" />
      <stop offset="70%" style="stop-color:#f59e0b;stop-opacity:0.6" />
      <stop offset="100%" style="stop-color:#d97706;stop-opacity:0" />
    </radialGradient>
  </defs>
  
  <!-- Sky Background -->
  <rect width="1920" height="1080" fill="url(#mountainSky)"/>
  
  <!-- Sun -->
  <g transform="translate(1600, 200)">
    <circle cx="0" cy="0" r="100" fill="url(#sunGlow)" opacity="0.8"/>
    <circle cx="0" cy="0" r="60" fill="#fbbf24">
      <animate attributeName="r" values="55;65;55" dur="4s" repeatCount="indefinite"/>
    </circle>
  </g>
  
  <!-- Clouds -->
  <g opacity="0.8">
    <ellipse cx="400" cy="150" rx="60" ry="20" fill="#f8fafc" opacity="0.7">
      <animateTransform attributeName="transform" type="translate" values="0,0; 30,0; 0,0" dur="15s" repeatCount="indefinite"/>
    </ellipse>
    <ellipse cx="420" cy="140" rx="40" ry="15" fill="#f8fafc" opacity="0.5">
      <animateTransform attributeName="transform" type="translate" values="0,0; 25,0; 0,0" dur="12s" repeatCount="indefinite"/>
    </ellipse>
    <ellipse cx="800" cy="120" rx="80" ry="25" fill="#f8fafc" opacity="0.6">
      <animateTransform attributeName="transform" type="translate" values="0,0; -20,0; 0,0" dur="18s" repeatCount="indefinite"/>
    </ellipse>
    <ellipse cx="1200" cy="180" rx="50" ry="18" fill="#f8fafc" opacity="0.4">
      <animateTransform attributeName="transform" type="translate" values="0,0; 40,0; 0,0" dur="20s" repeatCount="indefinite"/>
    </ellipse>
  </g>
  
  <!-- Mountain Range Background -->
  <path d="M0 600 L200 400 L400 500 L600 350 L800 450 L1000 300 L1200 400 L1400 250 L1600 350 L1800 200 L1920 300 L1920 1080 L0 1080 Z" fill="url(#mountainGradient1)" opacity="0.7"/>
  
  <!-- Mountain Range Foreground -->
  <path d="M0 700 L150 500 L300 600 L450 450 L600 550 L750 400 L900 500 L1050 350 L1200 450 L1350 300 L1500 400 L1650 250 L1800 350 L1920 300 L1920 1080 L0 1080 Z" fill="url(#mountainGradient2)"/>
  
  <!-- Snow Caps -->
  <g opacity="0.9">
    <path d="M580 350 L620 320 L660 350 L640 360 L600 360 Z" fill="#f8fafc"/>
    <path d="M730 400 L770 370 L810 400 L790 410 L750 410 Z" fill="#f8fafc"/>
    <path d="M1030 350 L1070 320 L1110 350 L1090 360 L1050 360 Z" fill="#f8fafc"/>
    <path d="M1330 300 L1370 270 L1410 300 L1390 310 L1350 310 Z" fill="#f8fafc"/>
    <path d="M1630 250 L1670 220 L1710 250 L1690 260 L1650 260 Z" fill="#f8fafc"/>
  </g>
  
  <!-- Forest -->
  <g opacity="0.8">
    <!-- Pine Trees -->
    <g transform="translate(200, 650)">
      <polygon points="0,-50 -15,-20 -10,-20 -10,0 10,0 10,-20 15,-20" fill="#16a34a"/>
      <polygon points="0,-40 -12,-15 -8,-15 -8,0 8,0 8,-15 12,-15" fill="#22c55e"/>
      <polygon points="0,-30 -10,-10 -6,-10 -6,0 6,0 6,-10 10,-10" fill="#16a34a"/>
    </g>
    
    <g transform="translate(250, 670)">
      <polygon points="0,-40 -12,-15 -8,-15 -8,0 8,0 8,-15 12,-15" fill="#16a34a"/>
      <polygon points="0,-30 -10,-10 -6,-10 -6,0 6,0 6,-10 10,-10" fill="#22c55e"/>
    </g>
    
    <g transform="translate(300, 640)">
      <polygon points="0,-60 -18,-25 -12,-25 -12,0 12,0 12,-25 18,-25" fill="#16a34a"/>
      <polygon points="0,-50 -15,-20 -10,-20 -10,0 10,0 10,-20 15,-20" fill="#22c55e"/>
      <polygon points="0,-40 -12,-15 -8,-15 -8,0 8,0 8,-15 12,-15" fill="#16a34a"/>
    </g>
    
    <g transform="translate(350, 680)">
      <polygon points="0,-35 -10,-12 -7,-12 -7,0 7,0 7,-12 10,-12" fill="#16a34a"/>
      <polygon points="0,-25 -8,-8 -5,-8 -5,0 5,0 5,-8 8,-8" fill="#22c55e"/>
    </g>
  </g>
  
  <!-- Adventure Elements -->
  
  <!-- Hiking Trail -->
  <path d="M100 800 Q300 750 500 780 Q700 760 900 790 Q1100 770 1300 800 Q1500 780 1700 810" 
        stroke="#92400e" stroke-width="8" fill="none" opacity="0.6" stroke-dasharray="20,10">
    <animate attributeName="stroke-dashoffset" values="0;30;0" dur="3s" repeatCount="indefinite"/>
  </path>
  
  <!-- Campfire -->
  <g transform="translate(800, 750)">
    <!-- Fire Base -->
    <ellipse cx="0" cy="10" rx="25" ry="8" fill="#92400e"/>
    
    <!-- Logs -->
    <rect x="-20" y="5" width="40" height="6" fill="#92400e" rx="3"/>
    <rect x="-15" y="-2" width="30" height="5" fill="#a16207" rx="2" transform="rotate(15)"/>
    <rect x="-18" y="8" width="36" height="5" fill="#a16207" rx="2" transform="rotate(-10)"/>
    
    <!-- Flames -->
    <ellipse cx="-8" cy="-5" rx="4" ry="15" fill="#dc2626" opacity="0.8">
      <animateTransform attributeName="transform" type="scale" values="1,1;1.2,0.8;1,1" dur="0.5s" repeatCount="indefinite"/>
    </ellipse>
    <ellipse cx="0" cy="-10" rx="6" ry="20" fill="#f59e0b" opacity="0.9">
      <animateTransform attributeName="transform" type="scale" values="1,1;0.8,1.3;1,1" dur="0.7s" repeatCount="indefinite"/>
    </ellipse>
    <ellipse cx="8" cy="-5" rx="4" ry="15" fill="#dc2626" opacity="0.8">
      <animateTransform attributeName="transform" type="scale" values="1,1;1.1,0.9;1,1" dur="0.6s" repeatCount="indefinite"/>
    </ellipse>
    <ellipse cx="0" cy="-15" rx="3" ry="10" fill="#fbbf24" opacity="0.7">
      <animateTransform attributeName="transform" type="scale" values="1,1;1.3,0.7;1,1" dur="0.4s" repeatCount="indefinite"/>
    </ellipse>
    
    <!-- Smoke -->
    <g opacity="0.4">
      <ellipse cx="-2" cy="-25" rx="2" ry="8" fill="#6b7280">
        <animateTransform attributeName="transform" type="translate" values="0,0; -5,-10; -10,-20" dur="3s" repeatCount="indefinite"/>
        <animate attributeName="opacity" values="0.4;0.1;0" dur="3s" repeatCount="indefinite"/>
      </ellipse>
      <ellipse cx="2" cy="-30" rx="3" ry="10" fill="#6b7280">
        <animateTransform attributeName="transform" type="translate" values="0,0; 8,-15; 15,-30" dur="4s" repeatCount="indefinite"/>
        <animate attributeName="opacity" values="0.4;0.1;0" dur="4s" repeatCount="indefinite"/>
      </ellipse>
    </g>
  </g>
  
  <!-- Tent -->
  <g transform="translate(1200, 780)">
    <!-- Tent Body -->
    <path d="M-40 0 L0 -30 L40 0 Z" fill="#dc2626"/>
    <path d="M-35 0 L0 -25 L35 0 Z" fill="#f87171"/>
    
    <!-- Tent Door -->
    <path d="M-10 0 L0 -15 L10 0 Z" fill="#374151"/>
    
    <!-- Tent Ropes -->
    <line x1="-40" y1="0" x2="-60" y2="10" stroke="#6b7280" stroke-width="2"/>
    <line x1="40" y1="0" x2="60" y2="10" stroke="#6b7280" stroke-width="2"/>
    
    <!-- Tent Stakes -->
    <circle cx="-60" cy="10" r="3" fill="#374151"/>
    <circle cx="60" cy="10" r="3" fill="#374151"/>
  </g>
  
  <!-- Eagles -->
  <g opacity="0.7">
    <path d="M600 200 Q610 195 620 200 Q615 205 610 200 Q605 205 600 200" fill="#374151">
      <animateTransform attributeName="transform" type="translate" values="0,0; 200,50; 400,0" dur="15s" repeatCount="indefinite"/>
    </path>
    <path d="M1000 150 Q1010 145 1020 150 Q1015 155 1010 150 Q1005 155 1000 150" fill="#374151">
      <animateTransform attributeName="transform" type="translate" values="0,0; -150,80; -300,0" dur="12s" repeatCount="indefinite"/>
    </path>
  </g>
  
  <!-- Waterfall -->
  <g transform="translate(450, 400)" opacity="0.8">
    <path d="M0 0 Q-5 50 0 100 Q5 150 0 200" stroke="#e0f2fe" stroke-width="8" fill="none" opacity="0.7">
      <animate attributeName="stroke-width" values="6;10;6" dur="2s" repeatCount="indefinite"/>
    </path>
    <path d="M5 0 Q0 50 5 100 Q10 150 5 200" stroke="#bae6fd" stroke-width="6" fill="none" opacity="0.5">
      <animate attributeName="stroke-width" values="4;8;4" dur="1.8s" repeatCount="indefinite"/>
    </path>
    
    <!-- Waterfall Pool -->
    <ellipse cx="0" cy="200" rx="20" ry="8" fill="#0ea5e9" opacity="0.6">
      <animate attributeName="rx" values="18;22;18" dur="2s" repeatCount="indefinite"/>
    </ellipse>
  </g>
  
  <!-- Adventure Gear -->
  <g transform="translate(1000, 820)" opacity="0.9">
    <!-- Backpack -->
    <rect x="-15" y="-25" width="30" height="35" fill="#16a34a" rx="5"/>
    <rect x="-12" y="-20" width="24" height="25" fill="#22c55e" rx="3"/>
    <circle cx="0" cy="-10" r="3" fill="#374151"/>
    
    <!-- Sleeping Bag -->
    <ellipse cx="25" cy="-5" rx="20" ry="8" fill="#dc2626"/>
    <ellipse cx="25" cy="-5" rx="15" ry="6" fill="#f87171"/>
  </g>
</svg>