<svg viewBox="0 0 1920 1080" xmlns="http://www.w3.org/2000/svg">
  <defs>
    <linearGradient id="sunsetSky" x1="0%" y1="0%" x2="0%" y2="100%">
      <stop offset="0%" style="stop-color:#fbbf24;stop-opacity:1" />
      <stop offset="30%" style="stop-color:#f59e0b;stop-opacity:1" />
      <stop offset="70%" style="stop-color:#dc2626;stop-opacity:1" />
      <stop offset="100%" style="stop-color:#7c2d12;stop-opacity:1" />
    </linearGradient>
    <radialGradient id="sunGlow" cx="50%" cy="50%" r="50%">
      <stop offset="0%" style="stop-color:#fbbf24;stop-opacity:1" />
      <stop offset="50%" style="stop-color:#f59e0b;stop-opacity:0.8" />
      <stop offset="100%" style="stop-color:#dc2626;stop-opacity:0" />
    </radialGradient>
    <linearGradient id="oceanGradient" x1="0%" y1="0%" x2="0%" y2="100%">
      <stop offset="0%" style="stop-color:#0ea5e9;stop-opacity:0.8" />
      <stop offset="50%" style="stop-color:#0284c7;stop-opacity:0.9" />
      <stop offset="100%" style="stop-color:#0c4a6e;stop-opacity:1" />
    </linearGradient>
    <linearGradient id="yachtGradient" x1="0%" y1="0%" x2="0%" y2="100%">
      <stop offset="0%" style="stop-color:#f8fafc;stop-opacity:1" />
      <stop offset="100%" style="stop-color:#e2e8f0;stop-opacity:1" />
    </linearGradient>
  </defs>
  
  <!-- Sky Background -->
  <rect width="1920" height="1080" fill="url(#sunsetSky)"/>
  
  <!-- Sun -->
  <g transform="translate(1400, 250)">
    <circle cx="0" cy="0" r="120" fill="url(#sunGlow)" opacity="0.6"/>
    <circle cx="0" cy="0" r="80" fill="#fbbf24">
      <animate attributeName="r" values="75;85;75" dur="4s" repeatCount="indefinite"/>
    </circle>
  </g>
  
  <!-- Clouds -->
  <g opacity="0.7">
    <ellipse cx="300" cy="200" rx="80" ry="30" fill="#fbbf24" opacity="0.4">
      <animateTransform attributeName="transform" type="translate" values="0,0; 50,0; 0,0" dur="20s" repeatCount="indefinite"/>
    </ellipse>
    <ellipse cx="320" cy="190" rx="60" ry="25" fill="#f59e0b" opacity="0.3">
      <animateTransform attributeName="transform" type="translate" values="0,0; 40,0; 0,0" dur="18s" repeatCount="indefinite"/>
    </ellipse>
    <ellipse cx="800" cy="150" rx="100" ry="40" fill="#fbbf24" opacity="0.3">
      <animateTransform attributeName="transform" type="translate" values="0,0; -30,0; 0,0" dur="25s" repeatCount="indefinite"/>
    </ellipse>
  </g>
  
  <!-- Ocean -->
  <path d="M0 600 Q480 580 960 600 T1920 600 L1920 1080 L0 1080 Z" fill="url(#oceanGradient)"/>
  
  <!-- Ocean Waves -->
  <g opacity="0.6">
    <path d="M0 620 Q240 610 480 620 T960 620 T1440 620 T1920 620 L1920 630 Q1680 640 1440 630 T960 630 T480 630 T0 630 Z" fill="#0ea5e9">
      <animateTransform attributeName="transform" type="translate" values="0,0; 20,0; 0,0" dur="3s" repeatCount="indefinite"/>
    </path>
    <path d="M0 640 Q240 630 480 640 T960 640 T1440 640 T1920 640 L1920 650 Q1680 660 1440 650 T960 650 T480 650 T0 650 Z" fill="#0284c7">
      <animateTransform attributeName="transform" type="translate" values="0,0; -15,0; 0,0" dur="4s" repeatCount="indefinite"/>
    </path>
  </g>
  
  <!-- Luxury Yacht -->
  <g transform="translate(960, 550)">
    <!-- Yacht Hull -->
    <path d="M-150 0 Q-140 -20 -100 -25 L100 -25 Q140 -20 150 0 L140 20 Q100 25 -100 25 Q-140 20 -150 0 Z" fill="url(#yachtGradient)"/>
    
    <!-- Yacht Deck -->
    <rect x="-120" y="-20" width="240" height="15" fill="#94a3b8" rx="5"/>
    
    <!-- Yacht Cabin -->
    <rect x="-80" y="-45" width="160" height="25" fill="#f8fafc" rx="3"/>
    <rect x="-70" y="-40" width="140" height="15" fill="#0ea5e9" opacity="0.3" rx="2"/>
    
    <!-- Yacht Mast -->
    <rect x="-2" y="-80" width="4" height="60" fill="#64748b"/>
    
    <!-- Yacht Sail -->
    <path d="M5 -75 Q40 -70 45 -45 Q40 -20 5 -25 Z" fill="#f8fafc" opacity="0.9">
      <animateTransform attributeName="transform" type="skewX" values="0;3;0" dur="3s" repeatCount="indefinite"/>
    </path>
    
    <!-- Yacht Details -->
    <circle cx="-60" cy="-35" r="3" fill="#fbbf24"/>
    <circle cx="-40" cy="-35" r="3" fill="#fbbf24"/>
    <circle cx="-20" cy="-35" r="3" fill="#fbbf24"/>
    <circle cx="0" cy="-35" r="3" fill="#fbbf24"/>
    <circle cx="20" cy="-35" r="3" fill="#fbbf24"/>
    <circle cx="40" cy="-35" r="3" fill="#fbbf24"/>
    <circle cx="60" cy="-35" r="3" fill="#fbbf24"/>
    
    <!-- Wake -->
    <path d="M150 0 Q200 -10 250 -5 Q200 10 150 5" fill="#e0f2fe" opacity="0.6">
      <animateTransform attributeName="transform" type="translate" values="0,0; 10,0; 0,0" dur="2s" repeatCount="indefinite"/>
    </path>
    <path d="M150 10 Q200 0 250 15 Q200 20 150 15" fill="#e0f2fe" opacity="0.4">
      <animateTransform attributeName="transform" type="translate" values="0,0; 8,0; 0,0" dur="2.5s" repeatCount="indefinite"/>
    </path>
  </g>
  
  <!-- Tropical Island -->
  <g transform="translate(300, 700)">
    <!-- Island Base -->
    <ellipse cx="0" cy="0" rx="120" ry="40" fill="#fbbf24" opacity="0.8"/>
    
    <!-- Palm Trees -->
    <g transform="translate(-50, -20)">
      <rect x="-3" y="-40" width="6" height="40" fill="#92400e"/>
      <ellipse cx="0" cy="-45" rx="15" ry="8" fill="#16a34a">
        <animateTransform attributeName="transform" type="rotate" values="0;5;-5;0" dur="4s" repeatCount="indefinite"/>
      </ellipse>
      <ellipse cx="-10" cy="-50" rx="12" ry="6" fill="#16a34a">
        <animateTransform attributeName="transform" type="rotate" values="0;-3;3;0" dur="3s" repeatCount="indefinite"/>
      </ellipse>
      <ellipse cx="10" cy="-50" rx="12" ry="6" fill="#16a34a">
        <animateTransform attributeName="transform" type="rotate" values="0;3;-3;0" dur="3.5s" repeatCount="indefinite"/>
      </ellipse>
    </g>
    
    <g transform="translate(50, -15)">
      <rect x="-2" y="-35" width="4" height="35" fill="#92400e"/>
      <ellipse cx="0" cy="-40" rx="12" ry="6" fill="#16a34a">
        <animateTransform attributeName="transform" type="rotate" values="0;-4;4;0" dur="3.8s" repeatCount="indefinite"/>
      </ellipse>
      <ellipse cx="-8" cy="-45" rx="10" ry="5" fill="#16a34a">
        <animateTransform attributeName="transform" type="rotate" values="0;2;-2;0" dur="4.2s" repeatCount="indefinite"/>
      </ellipse>
      <ellipse cx="8" cy="-45" rx="10" ry="5" fill="#16a34a">
        <animateTransform attributeName="transform" type="rotate" values="0;-2;2;0" dur="3.3s" repeatCount="indefinite"/>
      </ellipse>
    </g>
  </g>
  
  <!-- Seagulls -->
  <g opacity="0.8">
    <path d="M500 300 Q510 295 520 300 Q510 305 500 300" fill="#f8fafc">
      <animateTransform attributeName="transform" type="translate" values="0,0; 100,-20; 200,0" dur="8s" repeatCount="indefinite"/>
    </path>
    <path d="M600 250 Q610 245 620 250 Q610 255 600 250" fill="#f8fafc">
      <animateTransform attributeName="transform" type="translate" values="0,0; -80,30; -160,0" dur="10s" repeatCount="indefinite"/>
    </path>
    <path d="M1200 280 Q1210 275 1220 280 Q1210 285 1200 280" fill="#f8fafc">
      <animateTransform attributeName="transform" type="translate" values="0,0; 150,40; 300,0" dur="12s" repeatCount="indefinite"/>
    </path>
  </g>
  
  <!-- Luxury Resort in Distance -->
  <g transform="translate(1500, 650)" opacity="0.6">
    <rect x="-60" y="-50" width="120" height="50" fill="#f8fafc" rx="5"/>
    <rect x="-50" y="-45" width="100" height="5" fill="#fbbf24"/>
    <rect x="-40" y="-35" width="80" height="3" fill="#0ea5e9" opacity="0.5"/>
    <rect x="-30" y="-25" width="60" height="3" fill="#0ea5e9" opacity="0.5"/>
  </g>
  
  <!-- Reflection on Water -->
  <g opacity="0.3">
    <ellipse cx="960" cy="650" rx="100" ry="20" fill="#f8fafc">
      <animate attributeName="opacity" values="0.2;0.4;0.2" dur="3s" repeatCount="indefinite"/>
    </ellipse>
  </g>
</svg>