<svg viewBox="0 0 1920 1080" xmlns="http://www.w3.org/2000/svg">
  <defs>
    <linearGradient id="skyGradient" x1="0%" y1="0%" x2="0%" y2="100%">
      <stop offset="0%" style="stop-color:#1e3a8a;stop-opacity:1" />
      <stop offset="50%" style="stop-color:#3730a3;stop-opacity:1" />
      <stop offset="100%" style="stop-color:#581c87;stop-opacity:1" />
    </linearGradient>
    <radialGradient id="moonGlow" cx="50%" cy="50%" r="50%">
      <stop offset="0%" style="stop-color:#fbbf24;stop-opacity:0.8" />
      <stop offset="70%" style="stop-color:#f59e0b;stop-opacity:0.4" />
      <stop offset="100%" style="stop-color:#d97706;stop-opacity:0" />
    </radialGradient>
    <linearGradient id="kaabaGradient" x1="0%" y1="0%" x2="0%" y2="100%">
      <stop offset="0%" style="stop-color:#374151;stop-opacity:1" />
      <stop offset="100%" style="stop-color:#111827;stop-opacity:1" />
    </linearGradient>
  </defs>
  
  <!-- Sky Background -->
  <rect width="1920" height="1080" fill="url(#skyGradient)"/>
  
  <!-- Stars -->
  <g opacity="0.8">
    <circle cx="200" cy="150" r="2" fill="#fbbf24">
      <animate attributeName="opacity" values="0.3;1;0.3" dur="3s" repeatCount="indefinite"/>
    </circle>
    <circle cx="400" cy="100" r="1.5" fill="#fbbf24">
      <animate attributeName="opacity" values="0.5;1;0.5" dur="2s" repeatCount="indefinite"/>
    </circle>
    <circle cx="600" cy="180" r="1" fill="#fbbf24">
      <animate attributeName="opacity" values="0.4;1;0.4" dur="2.5s" repeatCount="indefinite"/>
    </circle>
    <circle cx="800" cy="120" r="2" fill="#fbbf24">
      <animate attributeName="opacity" values="0.6;1;0.6" dur="3.5s" repeatCount="indefinite"/>
    </circle>
    <circle cx="1000" cy="200" r="1.5" fill="#fbbf24">
      <animate attributeName="opacity" values="0.3;1;0.3" dur="2.8s" repeatCount="indefinite"/>
    </circle>
    <circle cx="1200" cy="80" r="1" fill="#fbbf24">
      <animate attributeName="opacity" values="0.5;1;0.5" dur="3.2s" repeatCount="indefinite"/>
    </circle>
    <circle cx="1400" cy="160" r="2" fill="#fbbf24">
      <animate attributeName="opacity" values="0.4;1;0.4" dur="2.3s" repeatCount="indefinite"/>
    </circle>
    <circle cx="1600" cy="140" r="1.5" fill="#fbbf24">
      <animate attributeName="opacity" values="0.6;1;0.6" dur="3.8s" repeatCount="indefinite"/>
    </circle>
  </g>
  
  <!-- Moon -->
  <g transform="translate(1500, 200)">
    <circle cx="0" cy="0" r="80" fill="url(#moonGlow)"/>
    <circle cx="0" cy="0" r="50" fill="#fbbf24" opacity="0.9"/>
    <circle cx="-15" cy="-10" r="8" fill="#f59e0b" opacity="0.6"/>
    <circle cx="10" cy="15" r="5" fill="#f59e0b" opacity="0.4"/>
    <circle cx="-5" cy="20" r="3" fill="#f59e0b" opacity="0.5"/>
  </g>
  
  <!-- Ground/Desert -->
  <path d="M0 800 Q480 750 960 800 T1920 800 L1920 1080 L0 1080 Z" fill="#92400e" opacity="0.8"/>
  <path d="M0 850 Q480 820 960 850 T1920 850 L1920 1080 L0 1080 Z" fill="#a16207" opacity="0.6"/>
  
  <!-- Kaaba Structure -->
  <g transform="translate(960, 600)">
    <!-- Main Kaaba Body -->
    <rect x="-100" y="-80" width="200" height="160" fill="url(#kaabaGradient)" rx="5"/>
    
    <!-- Kaaba Door -->
    <rect x="-20" y="-60" width="40" height="80" fill="#d97706" opacity="0.8"/>
    <rect x="-15" y="-55" width="30" height="70" fill="#f59e0b" opacity="0.6"/>
    
    <!-- Kaaba Corner Details -->
    <rect x="-105" y="-85" width="10" height="170" fill="#d97706" opacity="0.7"/>
    <rect x="95" y="-85" width="10" height="170" fill="#d97706" opacity="0.7"/>
    
    <!-- Kiswa Pattern -->
    <g opacity="0.3">
      <rect x="-80" y="-60" width="160" height="2" fill="#fbbf24"/>
      <rect x="-80" y="-30" width="160" height="2" fill="#fbbf24"/>
      <rect x="-80" y="0" width="160" height="2" fill="#fbbf24"/>
      <rect x="-80" y="30" width="160" height="2" fill="#fbbf24"/>
    </g>
    
    <!-- Glow Effect -->
    <rect x="-110" y="-90" width="220" height="180" fill="none" stroke="#fbbf24" stroke-width="2" opacity="0.4" rx="8">
      <animate attributeName="opacity" values="0.2;0.6;0.2" dur="4s" repeatCount="indefinite"/>
    </rect>
  </g>
  
  <!-- Pilgrims Silhouettes -->
  <g opacity="0.6">
    <ellipse cx="700" cy="780" rx="15" ry="40" fill="#374151"/>
    <ellipse cx="750" cy="785" rx="12" ry="35" fill="#374151"/>
    <ellipse cx="1200" cy="775" rx="18" ry="45" fill="#374151"/>
    <ellipse cx="1250" cy="780" rx="14" ry="38" fill="#374151"/>
  </g>
  
  <!-- Minarets in Distance -->
  <g opacity="0.4">
    <rect x="300" y="600" width="20" height="200" fill="#374151"/>
    <circle cx="310" cy="590" r="15" fill="#374151"/>
    <rect x="1600" y="620" width="18" height="180" fill="#374151"/>
    <circle cx="1609" cy="610" r="12" fill="#374151"/>
  </g>
  
  <!-- Atmospheric Particles -->
  <g opacity="0.3">
    <circle cx="400" cy="400" r="1" fill="#fbbf24">
      <animateTransform attributeName="transform" type="translate" values="0,0; 50,20; 0,0" dur="8s" repeatCount="indefinite"/>
    </circle>
    <circle cx="800" cy="350" r="1.5" fill="#f59e0b">
      <animateTransform attributeName="transform" type="translate" values="0,0; -30,15; 0,0" dur="6s" repeatCount="indefinite"/>
    </circle>
    <circle cx="1200" cy="450" r="1" fill="#fbbf24">
      <animateTransform attributeName="transform" type="translate" values="0,0; 40,-10; 0,0" dur="7s" repeatCount="indefinite"/>
    </circle>
  </g>
</svg>